# xmcd
#
# Track frame offsets: 
#        150
#        21221
#        40195
#        53348
#        84398
#        107913
#        131872
#        155152
#        169561
#        189898
#        204435
#        236515
#        249861
#        275347
#
# Disc length: 4244 seconds
#
# Revision: 0
# Processed by: cddbd v1.5.2PL0 Copyright (c) Steve Scherf et al.
# Submitted via: ExactAudioCopyFreeDBPlugin 1.0
#
DISCID=ae10920e
DTITLE=Asher Quinn - Sacred Songs
DYEAR=2012
DGENRE=Acoustic
TTITLE0=Heavon on earth
TTITLE1=I love you
TTITLE2=Green man
TTITLE3=The road home
TTITLE4=Evangelina
TTITLE5=Beyond Saturn
TTITLE6=You are loved
TTITLE7=Kyrie
TTITLE8=I wish
TTITLE9=Illusions I have loved
TTITLE10=Talia the thief
TTITLE11=The shepherd
TTITLE12=Passion play
TTITLE13=One more hour (the Hallelujah song)
EXTD=
EXTT0=
EXTT1=
EXTT2=
EXTT3=
EXTT4=
EXTT5=
EXTT6=
EXTT7=
EXTT8=
EXTT9=
EXTT10=
EXTT11=
EXTT12=
EXTT13=
PLAYORDER=
